<?xml version="1.0" encoding="UTF-8" standalone="no"?>
<!-- Generator: Adobe Illustrator 14.0.0, SVG Export Plug-In . SVG Version: 6.00 Build 43363)  -->

<svg
   xmlns:dc="http://purl.org/dc/elements/1.1/"
   xmlns:cc="http://creativecommons.org/ns#"
   xmlns:rdf="http://www.w3.org/1999/02/22-rdf-syntax-ns#"
   xmlns:svg="http://www.w3.org/2000/svg"
   xmlns="http://www.w3.org/2000/svg"
   xmlns:sodipodi="http://sodipodi.sourceforge.net/DTD/sodipodi-0.dtd"
   xmlns:inkscape="http://www.inkscape.org/namespaces/inkscape"
   version="1.1"
   id="Layer_1"
   x="0px"
   y="0px"
   viewBox="0 0 600 600"
   enable-background="new 0 0 1024.15 753.006"
   xml:space="preserve"
   inkscape:version="0.48.2 r9819"
   sodipodi:docname="emailbutton.svg"
   width="100%"
   height="100%"><metadata
   id="metadata3171"><rdf:RDF><cc:Work
       rdf:about=""><dc:format>image/svg+xml</dc:format><dc:type
         rdf:resource="http://purl.org/dc/dcmitype/StillImage" /><dc:title /></cc:Work></rdf:RDF></metadata><defs
   id="defs3169" /><sodipodi:namedview
   pagecolor="#ffffff"
   bordercolor="#666666"
   borderopacity="1"
   objecttolerance="10"
   gridtolerance="10"
   guidetolerance="10"
   inkscape:pageopacity="0"
   inkscape:pageshadow="2"
   inkscape:window-width="1331"
   inkscape:window-height="828"
   id="namedview3167"
   showgrid="false"
   inkscape:zoom="0.90509668"
   inkscape:cx="229.88588"
   inkscape:cy="306.55454"
   inkscape:window-x="17"
   inkscape:window-y="31"
   inkscape:window-maximized="0"
   inkscape:current-layer="Layer_1"
   width="1280px"
   inkscape:document-units="pt"
   showguides="true"
   inkscape:guide-bbox="true"
   units="pt"
   fit-margin-top="0"
   fit-margin-left="0"
   fit-margin-right="0"
   fit-margin-bottom="0"><sodipodi:guide
     orientation="0,1"
     position="-718.625,5.6628032"
     id="guide3105" /><sodipodi:guide
     orientation="1,0"
     position="-665.625,272.6628"
     id="guide3109" /><sodipodi:guide
     orientation="1,0"
     position="967.1875,718.75"
     id="guide3111" /><sodipodi:guide
     orientation="0,1"
     position="-268.75,714.0625"
     id="guide3883" /></sodipodi:namedview>


























<g
   id="g3129"
   transform="matrix(0.76786999,0,0,0.63938392,-428.34476,-135.47271)">
	<path
   d="m 586.622,219.657 c 0.001,1.833 -0.699,3.668 -2.099,5.067 -7.965,7.965 -12.352,18.574 -12.352,29.873 -0.001,11.302 4.386,21.91 12.351,29.875 2.799,2.799 2.798,7.338 0,10.137 -2.8,2.799 -7.336,2.799 -10.137,0 -10.672,-10.671 -16.55,-24.881 -16.55,-40.012 0,-15.129 5.879,-29.338 16.551,-40.01 2.801,-2.799 7.338,-2.799 10.137,0 1.4,1.399 2.099,3.235 2.099,5.07 l 0,0 z"
   id="path3131"
   inkscape:connector-curvature="0"
   style="fill:#7bc043" />
	<path
   d="m 603.488,233.765 c 0,1.835 -0.698,3.667 -2.099,5.069 -8.691,8.691 -8.691,22.835 0,31.527 2.799,2.8 2.799,7.339 0,10.137 -2.8,2.8 -7.338,2.8 -10.137,0 -14.282,-14.281 -14.281,-37.521 0,-51.801 2.798,-2.801 7.337,-2.801 10.138,-0.001 1.4,1.4 2.098,3.235 2.098,5.069 l 0,0 z"
   id="path3133"
   inkscape:connector-curvature="0"
   style="fill:#7bc043" />
	<circle
   clip-rule="evenodd"
   cx="611.78302"
   cy="254.631"
   r="8.5959997"
   id="circle3135"
   d="m 620.37902,254.631 c 0,4.74744 -3.84856,8.596 -8.596,8.596 -4.74744,0 -8.596,-3.84856 -8.596,-8.596 0,-4.74744 3.84856,-8.596 8.596,-8.596 4.74744,0 8.596,3.84856 8.596,8.596 z"
   sodipodi:cx="611.78302"
   sodipodi:cy="254.631"
   sodipodi:rx="8.5959997"
   sodipodi:ry="8.5959997"
   style="fill:#7bc043;fill-rule:evenodd" />
</g>




























<path
   style="fill:#e6e6e6"
   inkscape:connector-curvature="0"
   d="M 72.184034,384.5062 H 597.375 V 263.1732 H 236.93211 c -10.69337,0 -19.36269,-6.717 -19.36269,-15 v -24.493 c 0,-8.284 8.66932,-15 19.36269,-15 H 597.375 v -18.282 H 236.93211 c -10.69337,0 -19.36269,-6.716 -19.36269,-15 v -24.493 c 0,-8.284 8.66932,-15 19.36269,-15 H 597.375 v -32.371 H 32.000004 v 490.803 c 0,1.714 0.12392,3.407 0.30722,5.091 h 20.51412 v -199.922 c 0,-8.284 8.66932,-15 19.36269,-15 z"
   id="path4399" /><path
   style="fill:#ffffff;stroke:#000000;stroke-width:1.19705904"
   inkscape:connector-curvature="0"
   d="m 175.758,150.9052 v 24.493 c 0,8.284 9.62369,15 21.49426,15 H 597.375 v -54.493 H 197.25226 c -11.87057,0 -21.49426,6.716 -21.49426,15 z"
   id="path4401" /><path
   style="fill:#ffffff;stroke:#000000;stroke-width:1.19705904"
   inkscape:connector-curvature="0"
   d="m 175.758,223.6802 v 24.493 c 0,8.283 9.62369,15 21.49426,15 H 597.375 v -54.493 H 197.25226 c -11.87057,0 -21.49426,6.716 -21.49426,15 z"
   id="path4403" /><path
   style="fill:#ffffff;stroke:#000000;stroke-width:1.14103746"
   inkscape:connector-curvature="0"
   d="M 597.375,599.4292 V 384.5062 H 67.659504 c -10.78549,0 -19.5295,6.716 -19.5295,15 v 199.923"
   id="path4405" /><line
   style="fill:#ffffff;stroke:#000000;stroke-width:1.1416465"
   x1="48.129948"
   y1="599.4292"
   x2="597.96155"
   y2="599.4292"
   id="line4407" /><path
   style="fill:#b3b3b3"
   inkscape:connector-curvature="0"
   d="m 124.14187,21.820199 c -50.877396,0 -92.141866,30.861 -92.141866,68.941001 v 12.773 H 597.375 V 21.820199 H 124.14187 z"
   id="path4409" /><circle
   d="m 488.379,569.77502 c 0,6.49156 -5.26245,11.754 -11.754,11.754 -6.49155,0 -11.754,-5.26244 -11.754,-11.754 0,-6.49155 5.26245,-11.754 11.754,-11.754 6.49155,0 11.754,5.26245 11.754,11.754 z"
   style="fill:#ffffff;fill-rule:evenodd"
   sodipodi:ry="11.754"
   sodipodi:rx="11.754"
   sodipodi:cy="569.77502"
   sodipodi:cx="476.625"
   clip-rule="evenodd"
   cx="476.625"
   cy="569.77502"
   r="11.754"
   id="circle4419"
   transform="translate(-64.119996,-87.452801)" /><text
   id="text4439"
   x="190.88287"
   y="374.68781"><tspan
     style="font-size:30px;font-family:Arial-BoldMT"
     x="190.88287"
     y="374.68781"
     font-size="30"
     id="tspan4441">B</tspan><tspan
     style="font-size:30px;letter-spacing:26;font-family:Arial-BoldMT"
     x="212.54791"
     y="374.68781"
     font-size="30"
     letter-spacing="26"
     id="tspan4443"> </tspan><tspan
     style="font-size:30px;font-family:TimesNewRomanPS-BoldItalicMT"
     x="247.86688"
     y="374.68781"
     font-size="30"
     id="tspan4445">I</tspan><tspan
     style="font-size:30px;letter-spacing:37;font-family:TimesNewRomanPS-BoldItalicMT"
     x="259.54193"
     y="374.68781"
     font-size="30"
     letter-spacing="37"
     id="tspan4447"> </tspan><tspan
     style="font-size:30px;font-family:TimesNewRomanPS-BoldMT"
     x="304.85187"
     y="374.68781"
     font-size="30"
     id="tspan4449">U</tspan></text>



<line
   style="fill:none;stroke:#ffffff;stroke-width:4.54461575"
   clip-rule="evenodd"
   x1="31.999943"
   y1="103.5352"
   x2="597.375"
   y2="103.5352"
   id="line4451" /><path
   style="fill:#7bc043;fill-rule:evenodd;stroke:#ffffff;stroke-width:2"
   inkscape:connector-curvature="0"
   clip-rule="evenodd"
   d="m 320.055,75.905199 c 0,8.284 -6.716,15.000001 -15,15.000001 H 125.438 c -8.284,0 -15,-6.716001 -15,-15.000001 v -29.084 c 0,-8.284 6.716,-15 15,-15 h 179.617 c 8.284,0 15,6.716 15,15 v 29.084 z"
   id="path4453" /><text
   style="font-size:40px;font-style:normal;font-variant:normal;font-weight:normal;font-stretch:normal;text-align:start;line-height:125%;writing-mode:lr-tb;text-anchor:start;fill:#ffffff;font-family:Arial Rounded MT Bold;-inkscape-font-specification:'Arial Rounded MT Bold,'"
   font-size="42"
   id="text4455"
   x="163.90436"
   y="77.020401"
   sodipodi:linespacing="125%">Send</text>



<text
   style="font-size:30px;font-family:Arial-BoldMT"
   font-size="30"
   id="text4457"
   x="122.06074"
   y="190.39828">To:</text>



<text
   style="font-size:30px;font-family:Arial-BoldMT"
   font-size="30"
   id="text4459"
   x="48.129948"
   y="263.17419">Subject:</text>







<line
   style="fill:none;stroke:#000000;stroke-width:2"
   clip-rule="evenodd"
   x1="305.74103"
   y1="378.5072"
   x2="327.841"
   y2="378.5072"
   id="line4465" /><line
   style="fill:none;stroke:#000000;stroke-width:2"
   clip-rule="evenodd"
   x1="59.846989"
   y1="378.5072"
   x2="150.51202"
   y2="378.5072"
   id="line4467" /><text
   style="font-size:21px;font-family:ArialMT"
   font-size="21"
   id="text4469"
   x="199.46783"
   y="297.74158">Attach a file</text>



<text
   style="font-size:21px;font-family:ArialMT"
   font-size="21"
   id="text4471"
   x="59.846745"
   y="374.79431">Plain Text</text>



<path
   style="fill:none;stroke:#000000;stroke-width:2;stroke-linecap:round"
   inkscape:connector-curvature="0"
   clip-rule="evenodd"
   d="m 187.682,295.9932 10.934,-11.577 c 0,0 1.918,-2.74 0,-4.041 l -4.385,-3.426 c 0,0 -1.576,-1.302 -3.356,0.822 l -12.604,12.536 c 0,0 -2.398,1.645 -1.233,2.945 l 3.494,3.289 c 0,0 1.37,1.506 2.74,0 l 10.138,-10.824 c 0,0 1.233,-1.302 -0.068,-2.055 l -1.232,-0.959 c 0,0 -1.097,-1.028 -2.124,0.205 l -6.137,6.265"
   id="path4473" /><path
   style="fill:#f2f2f2;stroke:#ffffff;stroke-width:2.82604718"
   inkscape:connector-curvature="0"
   d="m 372.1205,31.820199 c -16.5401,0 -29.9495,6.716 -29.9495,15 v 29.084 c 0,8.284 13.4094,15.000001 29.9495,15.000001 H 597.375 V 31.820199 H 372.1205 z"
   id="path4475" /><line
   style="fill:#ffffff;stroke:#b3b3b3;stroke-width:1.158023"
   x1="59.846989"
   y1="396.59619"
   x2="597.375"
   y2="589.41522"
   id="line4477" /><line
   style="fill:#ffffff;stroke:#b3b3b3;stroke-width:1.158023"
   x1="59.846989"
   y1="588.37823"
   x2="597.375"
   y2="395.5592"
   id="line4479" /></svg>