<?xml version="1.0" encoding="UTF-8" standalone="no"?>
<!-- Generator: Adobe Illustrator 14.0.0, SVG Export Plug-In . SVG Version: 6.00 Build 43363)  -->

<svg
   xmlns:dc="http://purl.org/dc/elements/1.1/"
   xmlns:cc="http://creativecommons.org/ns#"
   xmlns:rdf="http://www.w3.org/1999/02/22-rdf-syntax-ns#"
   xmlns:svg="http://www.w3.org/2000/svg"
   xmlns="http://www.w3.org/2000/svg"
   xmlns:sodipodi="http://sodipodi.sourceforge.net/DTD/sodipodi-0.dtd"
   xmlns:inkscape="http://www.inkscape.org/namespaces/inkscape"
   version="1.1"
   id="Layer_1"
   x="0px"
   y="0px"
   viewBox="720 400 600 600"
   enable-background="new 0 0 1024.15 753.006"
   xml:space="preserve"
   inkscape:version="0.48.2 r9819"
   sodipodi:docname="smsbutton.svg"
   width="100%"
   height="100%"><metadata
   id="metadata3171"><rdf:RDF><cc:Work
       rdf:about=""><dc:format>image/svg+xml</dc:format><dc:type
         rdf:resource="http://purl.org/dc/dcmitype/StillImage" /><dc:title /></cc:Work></rdf:RDF></metadata><defs
   id="defs3169" /><sodipodi:namedview
   pagecolor="#00ffff"
   bordercolor="#666666"
   borderopacity="1"
   objecttolerance="10"
   gridtolerance="10"
   guidetolerance="10"
   inkscape:pageopacity="0"
   inkscape:pageshadow="2"
   inkscape:window-width="1331"
   inkscape:window-height="828"
   id="namedview3167"
   showgrid="false"
   inkscape:zoom="1"
   inkscape:cx="212.25079"
   inkscape:cy="391.89616"
   inkscape:window-x="-4"
   inkscape:window-y="0"
   inkscape:window-maximized="0"
   inkscape:current-layer="Layer_1"
   width="1280px"
   inkscape:document-units="pt"
   showguides="true"
   inkscape:guide-bbox="true"
   units="pt"
   fit-margin-top="0"
   fit-margin-left="0"
   fit-margin-right="0"
   fit-margin-bottom="0"><sodipodi:guide
     orientation="1,0"
     position="1250.4842,440.99999"
     id="guide3111" /><sodipodi:guide
     orientation="1,0"
     position="791.35922,907.12499"
     id="guide3881" /></sodipodi:namedview>





<path
   clip-rule="evenodd"
   d="m 1238.2893,399.38402 c 44.2403,0 80.1013,29.01145 80.1013,64.80858 v 473.392 c 0,35.79595 -35.8624,64.8085 -80.1013,64.8085 H 886.24546 c -44.23451,0 -80.09697,-29.01255 -80.09697,-64.8085 V 464.19144 c 0,-35.79597 35.86246,-64.80858 80.09697,-64.80858 h 352.04374 z"
   id="path3119"
   inkscape:connector-curvature="0"
   style="fill-rule:evenodd" />
<path
   clip-rule="evenodd"
   d="m 1220.0731,429.62205 c 39.6558,0 71.8064,23.70433 71.8064,52.95469 v 386.79511 c 0,29.24912 -32.1506,52.95344 -71.8064,52.95344 H 904.46603 c -39.6491,0 -71.80648,-23.70432 -71.80648,-52.95344 V 482.57549 c 0,-29.24911 32.15727,-52.95468 71.80648,-52.95468 h 315.60707 z"
   id="path3121"
   inkscape:connector-curvature="0"
   style="fill:#ffffff;fill-rule:evenodd" />
<path
   clip-rule="evenodd"
   d="m 1146.0234,958.7136 c 0,9.78096 -6.2084,17.71362 -13.8687,17.71362 H 992.38442 c -7.65927,0 -13.86887,-7.93266 -13.86887,-17.71362 l 0,0 c 0,-9.78192 6.2096,-17.71359 13.86887,-17.71359 h 139.77118 c 7.6594,0 13.8678,7.93167 13.8678,17.71359 l 0,0 z"
   id="path3123"
   inkscape:connector-curvature="0"
   style="fill:#ffffff;fill-rule:evenodd" />
<path
   clip-rule="evenodd"
   d="m 1092.1798,506.4047 c 0,2.79328 -2.3393,5.0589 -5.2245,5.0589 H 960.98709 c -2.88827,0 -5.22863,-2.26562 -5.22863,-5.0589 l 0,0 c 0,-2.79724 2.33934,-5.06386 5.22863,-5.06386 h 125.96821 c 2.8852,0 5.2245,2.26662 5.2245,5.06386 l 0,0 z"
   id="path3125"
   inkscape:connector-curvature="0"
   style="fill:#ffffff;fill-rule:evenodd" />
<line
   clip-rule="evenodd"
   x1="835.80786"
   y1="574.35132"
   x2="1290.3651"
   y2="574.35132"
   id="line3127"
   style="fill:none;stroke:#b3b3b3;stroke-width:2.97562838" />
<g
   id="g3129"
   transform="matrix(0.73009987,0,0,0.635352,321.7422,267.0266)">
	<path
   d="m 586.622,219.657 c 0.001,1.833 -0.699,3.668 -2.099,5.067 -7.965,7.965 -12.352,18.574 -12.352,29.873 -0.001,11.302 4.386,21.91 12.351,29.875 2.799,2.799 2.798,7.338 0,10.137 -2.8,2.799 -7.336,2.799 -10.137,0 -10.672,-10.671 -16.55,-24.881 -16.55,-40.012 0,-15.129 5.879,-29.338 16.551,-40.01 2.801,-2.799 7.338,-2.799 10.137,0 1.4,1.399 2.099,3.235 2.099,5.07 l 0,0 z"
   id="path3131"
   inkscape:connector-curvature="0"
   style="fill:#7bc043" />
	<path
   d="m 603.488,233.765 c 0,1.835 -0.698,3.667 -2.099,5.069 -8.691,8.691 -8.691,22.835 0,31.527 2.799,2.8 2.799,7.339 0,10.137 -2.8,2.8 -7.338,2.8 -10.137,0 -14.282,-14.281 -14.281,-37.521 0,-51.801 2.798,-2.801 7.337,-2.801 10.138,-0.001 1.4,1.4 2.098,3.235 2.098,5.069 l 0,0 z"
   id="path3133"
   inkscape:connector-curvature="0"
   style="fill:#7bc043" />
	<circle
   clip-rule="evenodd"
   cx="611.78302"
   cy="254.631"
   r="8.5959997"
   id="circle3135"
   d="m 620.37902,254.631 c 0,4.74744 -3.84856,8.596 -8.596,8.596 -4.74744,0 -8.596,-3.84856 -8.596,-8.596 0,-4.74744 3.84856,-8.596 8.596,-8.596 4.74744,0 8.596,3.84856 8.596,8.596 z"
   sodipodi:cx="611.78302"
   sodipodi:cy="254.631"
   sodipodi:rx="8.5959997"
   sodipodi:ry="8.5959997"
   style="fill:#7bc043;fill-rule:evenodd" />
</g>
<text
   id="text3137"
   x="833.86011"
   y="622.26355"
   style="font-size:40.38921356px;font-style:normal;font-variant:normal;font-weight:normal;font-stretch:normal;text-align:start;line-height:125%;writing-mode:lr-tb;text-anchor:start;fill:#808080;font-family:Arial Rounded MT Bold;-inkscape-font-specification:'Arial Rounded MT Bold,'"
   sodipodi:linespacing="125%"
   transform="scale(1.0161379,0.98411839)"><tspan
     x="833.86011"
     y="622.26355"
     font-size="24"
     id="tspan3139"
     style="font-size:40.38921356px;font-style:normal;font-variant:normal;font-weight:normal;font-stretch:normal;text-align:start;line-height:125%;writing-mode:lr-tb;text-anchor:start;fill:#808080;font-family:Arial Rounded MT Bold;-inkscape-font-specification:'Arial Rounded MT Bold,'">message: </tspan><tspan
     x="833.86011"
     y="652.72821"
     font-size="30"
     id="tspan3141"
     style="font-size:40.38921356px;font-style:normal;font-variant:normal;font-weight:normal;font-stretch:normal;text-align:start;line-height:125%;writing-mode:lr-tb;text-anchor:start;fill:#808080;font-family:Arial Rounded MT Bold;-inkscape-font-specification:'Arial Rounded MT Bold,'" /></text>






<text
   id="text3147"
   x="833.86011"
   y="563.93866"
   style="font-size:40.38921356px;font-style:normal;font-variant:normal;font-weight:normal;font-stretch:normal;text-align:start;line-height:125%;writing-mode:lr-tb;text-anchor:start;fill:#808080;fill-opacity:1;font-family:Arial Rounded MT Bold;-inkscape-font-specification:'Arial Rounded MT Bold,'"
   sodipodi:linespacing="125%"
   transform="scale(1.0161379,0.98411839)"><tspan
     x="833.86011"
     y="563.93866"
     font-size="24"
     id="tspan3149"
     style="font-size:40.38921356px;font-style:normal;font-variant:normal;font-weight:normal;font-stretch:normal;text-align:start;line-height:125%;writing-mode:lr-tb;text-anchor:start;fill:#808080;fill-opacity:1;font-family:Arial Rounded MT Bold;-inkscape-font-specification:'Arial Rounded MT Bold,'">to: </tspan><tspan
     x="864.80334"
     y="563.93866"
     font-size="30"
     id="tspan3151"
     style="font-size:40.38921356px;font-style:normal;font-variant:normal;font-weight:normal;font-stretch:normal;text-align:start;line-height:125%;writing-mode:lr-tb;text-anchor:start;fill:#808080;fill-opacity:1;font-family:Arial Rounded MT Bold;-inkscape-font-specification:'Arial Rounded MT Bold,'" /></text>






<path
   d="m 1066.4728,922.32529 h 153.0568 c 38.9438,0 70.5168,-18.90404 70.5168,-42.23001 v -13.91569 h -223.5736 v 56.1457 z"
   id="path3153"
   inkscape:connector-curvature="0"
   style="fill:#e6e6e6" />
<path
   d="m 902.80028,921.50208 h 153.66712 v -56.1457 H 833.72846 v 13.91569 c 0,23.32498 30.93261,42.23001 69.07182,42.23001 z"
   id="path3155"
   inkscape:connector-curvature="0"
   style="fill:#7bc043" />

<text
   font-size="30"
   id="text3159"
   x="878.34814"
   y="923.77399"
   style="font-size:40.38921356px;font-style:normal;font-variant:normal;font-weight:normal;font-stretch:normal;text-align:start;line-height:125%;writing-mode:lr-tb;text-anchor:start;fill:#ffffff;font-family:Arial Rounded MT Bold;-inkscape-font-specification:'Arial Rounded MT Bold,'"
   sodipodi:linespacing="125%"
   transform="scale(1.0161379,0.98411839)">Send</text>






<text
   font-size="30"
   id="text3161"
   x="1084.6283"
   y="923.01428"
   style="font-size:40.38921356px;font-style:normal;font-variant:normal;font-weight:normal;font-stretch:normal;text-align:start;line-height:125%;writing-mode:lr-tb;text-anchor:start;fill:#ffffff;font-family:Arial Rounded MT Bold;-inkscape-font-specification:'Arial Rounded MT Bold,'"
   sodipodi:linespacing="125%"
   transform="scale(1.0161379,0.98411839)">Cancel</text>






<path
   d="M 1221.0216,428.45761 H 903.51757 c -39.88755,0 -72.23813,27.22178 -72.23813,60.81259 v 8.17482 h 461.98026 v -8.17482 c 0,-33.59081 -32.3439,-60.81259 -72.2381,-60.81259 z"
   id="path3163"
   inkscape:connector-curvature="0"
   style="fill:#7bc043" />
<text
   font-size="26"
   id="text3165"
   x="909.5589"
   y="482.05762"
   style="font-size:40.38921356px;font-style:normal;font-variant:normal;font-weight:normal;font-stretch:normal;text-align:start;line-height:125%;writing-mode:lr-tb;text-anchor:start;fill:#ffffff;font-family:Arial Rounded MT Bold;-inkscape-font-specification:'Arial Rounded MT Bold,'"
   sodipodi:linespacing="125%"
   transform="scale(1.0161379,0.98411839)">New Message</text>




















</svg>