<?xml version="1.0" encoding="UTF-8" standalone="no"?>
<!-- Generator: Adobe Illustrator 14.0.0, SVG Export Plug-In . SVG Version: 6.00 Build 43363)  -->

<svg
   xmlns:dc="http://purl.org/dc/elements/1.1/"
   xmlns:cc="http://creativecommons.org/ns#"
   xmlns:rdf="http://www.w3.org/1999/02/22-rdf-syntax-ns#"
   xmlns:svg="http://www.w3.org/2000/svg"
   xmlns="http://www.w3.org/2000/svg"
   xmlns:sodipodi="http://sodipodi.sourceforge.net/DTD/sodipodi-0.dtd"
   xmlns:inkscape="http://www.inkscape.org/namespaces/inkscape"
   version="1.1"
   id="Layer_1"
   x="0px"
   y="0px"
   viewBox="0 0 480 480"
   enable-background="new 0 0 1024 768"
   xml:space="preserve"
   inkscape:version="0.48.2 r9819"
   width="100%"
   height="100%"
   sodipodi:docname="web.svg"><metadata
   id="metadata113"><rdf:RDF><cc:Work
       rdf:about=""><dc:format>image/svg+xml</dc:format><dc:type
         rdf:resource="http://purl.org/dc/dcmitype/StillImage" /></cc:Work></rdf:RDF></metadata><defs
   id="defs111" /><sodipodi:namedview
   pagecolor="#ffffff"
   bordercolor="#666666"
   borderopacity="1"
   objecttolerance="10"
   gridtolerance="10"
   guidetolerance="10"
   inkscape:pageopacity="0"
   inkscape:pageshadow="2"
   inkscape:window-width="1058"
   inkscape:window-height="788"
   id="namedview109"
   showgrid="false"
   fit-margin-top="0"
   fit-margin-left="0"
   fit-margin-right="0"
   fit-margin-bottom="0"
   inkscape:zoom="0.86915208"
   inkscape:cx="52.631561"
   inkscape:cy="293.49214"
   inkscape:window-x="250"
   inkscape:window-y="23"
   inkscape:window-maximized="0"
   inkscape:current-layer="Layer_1" />
<g
   id="g3"
   transform="translate(-470.87391,-15.705762)">
	<path
   clip-rule="evenodd"
   d="m 542.628,349.143 c 7.109,0 12.873,5.762 12.873,12.873 v 94.031 c 0,7.109 -5.764,12.873 -12.873,12.873 h -56.58 c -7.109,0 -12.873,-5.764 -12.873,-12.873 v -94.031 c 0,-7.111 5.764,-12.873 12.873,-12.873 h 56.58 z"
   id="path5"
   inkscape:connector-curvature="0"
   style="fill-rule:evenodd" />
	<path
   clip-rule="evenodd"
   d="m 535.815,359.303 c 5.398,0 9.773,4.375 9.773,9.773 v 71.388 c 0,5.398 -4.375,9.773 -9.773,9.773 H 492.86 c -5.398,0 -9.773,-4.375 -9.773,-9.773 v -71.388 c 0,-5.398 4.375,-9.773 9.773,-9.773 h 42.955 z"
   id="path7"
   inkscape:connector-curvature="0"
   style="fill:#ffffff;fill-rule:evenodd" />
	<path
   clip-rule="evenodd"
   d="m 533.376,459.242 c 0,2.264 -1.393,4.1 -3.109,4.1 h -31.328 c -1.717,0 -3.109,-1.836 -3.109,-4.1 l 0,0 c 0,-2.264 1.393,-4.1 3.109,-4.1 h 31.328 c 1.716,10e-4 3.109,1.837 3.109,4.1 l 0,0 z"
   id="path9"
   inkscape:connector-curvature="0"
   style="fill:#ffffff;fill-rule:evenodd" />
	<path
   clip-rule="evenodd"
   d="m 529.626,353.983 c 0,0.646 -0.523,1.17 -1.172,1.17 H 500.22 c -0.646,0 -1.17,-0.523 -1.17,-1.17 l 0,0 c 0,-0.648 0.523,-1.172 1.17,-1.172 h 28.234 c 0.649,0 1.172,0.523 1.172,1.172 l 0,0 z"
   id="path11"
   inkscape:connector-curvature="0"
   style="fill:#ffffff;fill-rule:evenodd" />
</g>
<g
   id="g13"
   transform="translate(-470.87391,-15.705762)">
	<path
   clip-rule="evenodd"
   d="m 525.312,412.717 c 0,1.865 -1.512,3.377 -3.377,3.377 h -15.193 c -1.865,0 -3.377,-1.512 -3.377,-3.377 v -16.908 c 0,-1.865 1.512,-3.377 3.377,-3.377 h 15.193 c 1.865,0 3.377,1.512 3.377,3.377 v 16.908 z"
   id="path15"
   inkscape:connector-curvature="0"
   style="fill-rule:evenodd" />
	<circle
   clip-rule="evenodd"
   cx="514.33801"
   cy="383.758"
   r="7.7659998"
   id="circle17"
   sodipodi:cx="514.33801"
   sodipodi:cy="383.758"
   sodipodi:rx="7.7659998"
   sodipodi:ry="7.7659998"
   style="fill-rule:evenodd"
   d="m 522.10401,383.758 c 0,4.28904 -3.47695,7.766 -7.766,7.766 -4.28904,0 -7.766,-3.47696 -7.766,-7.766 0,-4.28905 3.47696,-7.766 7.766,-7.766 4.28905,0 7.766,3.47695 7.766,7.766 z" />
</g>
<path
   clip-rule="evenodd"
   d="m 62.236093,415.54824 c 0,-1.643 -1.33,-2.973 -2.971,-2.973 h -31.604 c -1.641,0 -2.971,1.33 -2.971,2.973 l 0,0 c 0,1.641 1.33,2.971 2.971,2.971 h 31.604 c 1.641,0 2.971,-1.33 2.971,-2.971 l 0,0 z"
   id="path19"
   inkscape:connector-curvature="0"
   style="fill-rule:evenodd" />
<g
   id="g21"
   transform="translate(-138.36593,-433.3542)">
	<path
   clip-rule="evenodd"
   d="m 365.155,649.012 c 0,8.997 -7.293,16.291 -16.291,16.291 H 242.673 c -8.998,0 -16.291,-7.294 -16.291,-16.291 V 500.874 c 0,-8.998 7.293,-16.291 16.291,-16.291 h 106.191 c 8.998,0 16.291,7.293 16.291,16.291 v 148.138 z"
   id="path23"
   inkscape:connector-curvature="0"
   style="fill-rule:evenodd" />
	<path
   clip-rule="evenodd"
   d="m 355.788,632.883 c 0,7.281 -6.31,13.184 -14.092,13.184 h -91.855 c -7.781,0 -14.092,-5.902 -14.092,-13.184 V 513.002 c 0,-7.281 6.311,-13.184 14.092,-13.184 h 91.855 c 7.782,0 14.092,5.902 14.092,13.184 v 119.881 z"
   id="path25"
   inkscape:connector-curvature="0"
   style="fill:#ffffff;fill-rule:evenodd" />
	<circle
   clip-rule="evenodd"
   cx="295.76901"
   cy="655.68298"
   r="5.5"
   id="circle27"
   sodipodi:cx="295.76901"
   sodipodi:cy="655.68298"
   sodipodi:rx="5.5"
   sodipodi:ry="5.5"
   style="fill:#ffffff;fill-rule:evenodd"
   d="m 301.26901,655.68298 c 0,3.03757 -2.46243,5.5 -5.5,5.5 -3.03756,0 -5.5,-2.46243 -5.5,-5.5 0,-3.03756 2.46244,-5.5 5.5,-5.5 3.03757,0 5.5,2.46244 5.5,5.5 z" />
</g>
<path
   clip-rule="evenodd"
   d="m 215.09607,150.0428 c -0.09,-0.068 -0.186,-0.127 -0.277,-0.192 -1.541,-1.392 -3.039,-1.886 -4.525,-1.823 -2.214,-0.324 -4.547,0.05 -6.639,1.245 -1.641,0.936 -2.92,2.259 -3.807,3.783 -0.109,0.055 -0.22,0.102 -0.33,0.153 -3.236,-3.111 -8.242,-3.873 -12.33,-1.541 -2.104,1.202 -3.619,3.033 -4.46,5.12 -0.334,0.097 -0.696,0.188 -1.112,0.263 -3.146,-4.373 -6.834,-12.046 -9.406,-15.791 -2.981,-5.224 -9.622,-7.045 -14.832,-4.071 -5.212,2.977 -7.02,9.621 -4.037,14.845 6.057,11.02 22.649,31.654 26.359,41.366 -8.828,-5.527 -25.945,1.633 -21.058,12.643 3.272,7.375 9.836,6.625 15.767,8.543 14.482,4.681 38.508,18.157 48.547,28.516 14.037,-8.426 31.695,-19.459 45.734,-27.887 -8.642,-17.11 -11.477,-22.933 -20.993,-42.173 -8.115,-16.406 -19.347,-38.399 -32.601,-22.999 z"
   id="path29"
   inkscape:connector-curvature="0"
   style="fill-rule:evenodd;stroke:#ffffff;stroke-width:4" />
<path
   clip-rule="evenodd"
   d="m 196.66107,97.108803 c 0,-1.642 -2.763,-2.972 -6.171,-2.972 h -65.629 c -3.408,0 -6.17,1.33 -6.17,2.972 l 0,0 c 0,1.641 2.762,2.970997 6.17,2.970997 h 65.629 c 3.409,0 6.171,-1.329997 6.171,-2.970997 l 0,0 z"
   id="path31"
   inkscape:connector-curvature="0"
   style="fill-rule:evenodd" />
<path
   clip-rule="evenodd"
   d="m 196.66107,113.5748 c 0,-1.641 -2.763,-2.971 -6.171,-2.971 h -65.629 c -3.408,0 -6.17,1.33 -6.17,2.971 l 0,0 c 0,1.641 2.762,2.971 6.17,2.971 h 65.629 c 3.409,-0.001 6.171,-1.331 6.171,-2.971 l 0,0 z"
   id="path33"
   inkscape:connector-curvature="0"
   style="fill-rule:evenodd" />
<path
   clip-rule="evenodd"
   d="m 196.66107,130.0418 c 0,-1.642 -2.763,-2.972 -6.171,-2.972 h -65.629 c -3.408,0 -6.17,1.33 -6.17,2.972 l 0,0 c 0,1.641 2.762,2.971 6.17,2.971 h 65.629 c 3.409,-0.001 6.171,-1.331 6.171,-2.971 l 0,0 z"
   id="path35"
   inkscape:connector-curvature="0"
   style="fill-rule:evenodd" />
<g
   id="g37"
   transform="translate(-324.75448,-245.81509)">
	<path
   clip-rule="evenodd"
   d="m 774.939,700.293 c 1.145,-19.254 -19.924,-34.809 -23.98,-57.965 -0.959,-5.482 -0.744,-21.393 -0.744,-24.191 v -87.301 c 0,-10.969 -8.895,-19.863 -19.865,-19.863 H 585.266 c -10.971,0 -19.865,8.895 -19.865,19.863 v 87.301 c 0,2.805 0.447,20.883 -0.744,26.895 -5.746,28.99 -26.746,37.219 -25.404,55.232 -0.041,0.684 -0.066,1.377 -0.066,2.078 0,11.693 5.998,21.172 13.395,21.172 h 22.998 168.389 17.645 c 7.396,0 13.395,-9.479 13.395,-21.172 -0.003,-0.692 -0.029,-1.375 -0.07,-2.049 z"
   id="path39"
   inkscape:connector-curvature="0"
   style="fill-rule:evenodd" />
	<path
   clip-rule="evenodd"
   d="m 727.301,613.885 c 0,8.285 -6.715,15 -15,15 H 602.738 c -8.283,0 -15,-6.715 -15,-15 v -65.926 c 0,-8.283 6.717,-15 15,-15 h 109.563 c 8.285,0 15,6.717 15,15 v 65.926 z"
   id="path41"
   inkscape:connector-curvature="0"
   style="fill:#ffffff;fill-rule:evenodd" />
	<polygon
   clip-rule="evenodd"
   points="657.922,678.684 627.922,678.684 618.078,694.625 657.922,694.625 697.764,694.625 687.92,678.684 "
   id="polygon43"
   style="fill:#ffffff;fill-rule:evenodd" />
	<circle
   clip-rule="evenodd"
   cx="657.91699"
   cy="522.354"
   r="6.4809999"
   id="circle45"
   sodipodi:cx="657.91699"
   sodipodi:cy="522.354"
   sodipodi:rx="6.4809999"
   sodipodi:ry="6.4809999"
   style="fill:#ffffff;fill-rule:evenodd"
   d="m 664.39799,522.354 c 0,3.57936 -2.90164,6.481 -6.481,6.481 -3.57936,0 -6.481,-2.90164 -6.481,-6.481 0,-3.57935 2.90164,-6.481 6.481,-6.481 3.57936,0 6.481,2.90165 6.481,6.481 z" />
	<g
   id="g47">
		<rect
   x="583.00598"
   y="661.57001"
   clip-rule="evenodd"
   width="14.84"
   height="9.2679996"
   id="rect49"
   style="fill:#ffffff;fill-rule:evenodd" />
		<rect
   x="605.508"
   y="661.57001"
   clip-rule="evenodd"
   width="14.84"
   height="9.2679996"
   id="rect51"
   style="fill:#ffffff;fill-rule:evenodd" />
		<rect
   x="628.008"
   y="661.57001"
   clip-rule="evenodd"
   width="14.84"
   height="9.2679996"
   id="rect53"
   style="fill:#ffffff;fill-rule:evenodd" />
		<rect
   x="650.508"
   y="661.57001"
   clip-rule="evenodd"
   width="14.838"
   height="9.2679996"
   id="rect55"
   style="fill:#ffffff;fill-rule:evenodd" />
		<rect
   x="673.008"
   y="661.57001"
   clip-rule="evenodd"
   width="14.84"
   height="9.2679996"
   id="rect57"
   style="fill:#ffffff;fill-rule:evenodd" />
		<rect
   x="695.508"
   y="661.57001"
   clip-rule="evenodd"
   width="14.84"
   height="9.2679996"
   id="rect59"
   style="fill:#ffffff;fill-rule:evenodd" />
		<rect
   x="718.008"
   y="661.57001"
   clip-rule="evenodd"
   width="14.84"
   height="9.2679996"
   id="rect61"
   style="fill:#ffffff;fill-rule:evenodd" />
	</g>
	<g
   id="g63">
		<rect
   x="583.00598"
   y="644.68201"
   clip-rule="evenodd"
   width="14.84"
   height="9.2700005"
   id="rect65"
   style="fill:#ffffff;fill-rule:evenodd" />
		<rect
   x="605.508"
   y="644.68201"
   clip-rule="evenodd"
   width="14.84"
   height="9.2700005"
   id="rect67"
   style="fill:#ffffff;fill-rule:evenodd" />
		<rect
   x="628.008"
   y="644.68201"
   clip-rule="evenodd"
   width="14.84"
   height="9.2700005"
   id="rect69"
   style="fill:#ffffff;fill-rule:evenodd" />
		<rect
   x="650.508"
   y="644.68201"
   clip-rule="evenodd"
   width="14.838"
   height="9.2700005"
   id="rect71"
   style="fill:#ffffff;fill-rule:evenodd" />
		<rect
   x="673.008"
   y="644.68201"
   clip-rule="evenodd"
   width="14.84"
   height="9.2700005"
   id="rect73"
   style="fill:#ffffff;fill-rule:evenodd" />
		<rect
   x="695.508"
   y="644.68201"
   clip-rule="evenodd"
   width="14.84"
   height="9.2700005"
   id="rect75"
   style="fill:#ffffff;fill-rule:evenodd" />
		<rect
   x="718.008"
   y="644.68201"
   clip-rule="evenodd"
   width="14.84"
   height="9.2700005"
   id="rect77"
   style="fill:#ffffff;fill-rule:evenodd" />
	</g>
</g>
<g
   id="g79"
   transform="translate(-324.75448,-245.81509)">
	<path
   d="m 791.976,515.918 c -1.112,-1.111 -1.8,-2.648 -1.8,-4.346 0,-9.659 -3.773,-18.752 -10.625,-25.604 -6.853,-6.854 -15.944,-10.626 -25.604,-10.626 -3.395,0 -6.146,-2.753 -6.146,-6.146 0,-3.395 2.751,-6.146 6.146,-6.146 12.941,-0.001 25.122,5.052 34.296,14.226 9.174,9.174 14.225,21.354 14.225,34.297 0,3.396 -2.751,6.146 -6.146,6.146 -1.697,0 -3.234,-0.689 -4.346,-1.801 l 0,0 z"
   id="path81"
   inkscape:connector-curvature="0"
   style="fill:#7bc043" />
	<path
   d="m 773.193,517.59 c -1.112,-1.112 -1.8,-2.647 -1.801,-4.347 0,-10.54 -8.576,-19.116 -19.117,-19.117 -3.395,0 -6.147,-2.753 -6.146,-6.146 0,-3.395 2.752,-6.146 6.146,-6.146 17.319,0 31.41,14.092 31.41,31.41 0.001,3.395 -2.751,6.147 -6.146,6.147 -1.697,0 -3.233,-0.689 -4.346,-1.801 l 0,0 z"
   id="path83"
   inkscape:connector-curvature="0"
   style="fill:#7bc043" />
	<circle
   clip-rule="evenodd"
   cx="755.51202"
   cy="509.96701"
   r="7.3709998"
   id="circle85"
   sodipodi:cx="755.51202"
   sodipodi:cy="509.96701"
   sodipodi:rx="7.3709998"
   sodipodi:ry="7.3709998"
   style="fill:#7bc043;fill-rule:evenodd"
   d="m 762.88302,509.96701 c 0,4.07089 -3.30011,7.371 -7.371,7.371 -4.07089,0 -7.371,-3.30011 -7.371,-7.371 0,-4.07089 3.30011,-7.371 7.371,-7.371 4.07089,0 7.371,3.30011 7.371,7.371 z" />
</g>
<polygon
   clip-rule="evenodd"
   points="664.585,589.189 671.827,600.215 677.819,596.277 670.578,585.252 675.825,581.805 654.841,567.824 659.339,592.635 "
   id="polygon87"
   style="fill-rule:evenodd"
   transform="translate(-459.36844,-243.514)" />


<g
   id="g93"
   transform="translate(-470.87391,-15.705762)">
	<path
   d="m 596.684,348.42 c -1.112,-1.111 -1.8,-2.648 -1.8,-4.346 0,-9.659 -3.773,-18.752 -10.625,-25.604 -6.853,-6.854 -15.944,-10.626 -25.604,-10.626 -3.395,0 -6.146,-2.753 -6.146,-6.146 0,-3.395 2.751,-6.146 6.146,-6.146 12.941,-0.001 25.122,5.052 34.296,14.226 9.174,9.174 14.225,21.354 14.225,34.297 0,3.396 -2.751,6.146 -6.146,6.146 -1.697,0 -3.234,-0.688 -4.346,-1.801 l 0,0 z"
   id="path95"
   inkscape:connector-curvature="0"
   style="fill:#7bc043" />
	<path
   d="m 577.901,350.092 c -1.112,-1.112 -1.8,-2.647 -1.801,-4.347 0,-10.54 -8.576,-19.116 -19.117,-19.117 -3.395,0 -6.147,-2.753 -6.146,-6.146 0,-3.395 2.752,-6.146 6.146,-6.146 17.319,0 31.41,14.092 31.41,31.41 10e-4,3.395 -2.751,6.147 -6.146,6.147 -1.697,0 -3.233,-0.688 -4.346,-1.801 l 0,0 z"
   id="path97"
   inkscape:connector-curvature="0"
   style="fill:#7bc043" />
	<circle
   clip-rule="evenodd"
   cx="560.21997"
   cy="342.46899"
   r="7.3709998"
   id="circle99"
   sodipodi:cx="560.21997"
   sodipodi:cy="342.46899"
   sodipodi:rx="7.3709998"
   sodipodi:ry="7.3709998"
   style="fill:#7bc043;fill-rule:evenodd"
   d="m 567.59097,342.46899 c 0,4.07089 -3.30011,7.371 -7.371,7.371 -4.07089,0 -7.371,-3.30011 -7.371,-7.371 0,-4.07089 3.30011,-7.371 7.371,-7.371 4.07089,0 7.371,3.30011 7.371,7.371 z" />
</g>
<g
   id="g101"
   transform="translate(-138.36593,-433.3542)">
	<path
   d="m 405.92,487.041 c -1.112,-1.111 -1.8,-2.648 -1.8,-4.346 0,-9.66 -3.773,-18.752 -10.625,-25.604 -6.853,-6.854 -15.944,-10.627 -25.604,-10.627 -3.395,0 -6.146,-2.752 -6.146,-6.146 0,-3.394 2.751,-6.146 6.146,-6.146 12.941,0 25.122,5.053 34.296,14.227 9.174,9.174 14.225,21.354 14.225,34.297 0,3.395 -2.751,6.146 -6.146,6.146 -1.697,0 -3.234,-0.69 -4.346,-1.801 l 0,0 z"
   id="path103"
   inkscape:connector-curvature="0"
   style="fill:#7bc043" />
	<path
   d="m 387.138,488.713 c -1.112,-1.113 -1.8,-2.648 -1.801,-4.348 0,-10.539 -8.576,-19.115 -19.117,-19.117 -3.395,0 -6.147,-2.752 -6.146,-6.146 0,-3.395 2.752,-6.146 6.146,-6.146 17.319,0 31.41,14.092 31.41,31.41 10e-4,3.395 -2.751,6.148 -6.146,6.148 -1.698,0 -3.234,-0.69 -4.346,-1.801 l 0,0 z"
   id="path105"
   inkscape:connector-curvature="0"
   style="fill:#7bc043" />
	<circle
   clip-rule="evenodd"
   cx="369.45599"
   cy="481.09"
   r="7.3709998"
   id="circle107"
   sodipodi:cx="369.45599"
   sodipodi:cy="481.09"
   sodipodi:rx="7.3709998"
   sodipodi:ry="7.3709998"
   style="fill:#7bc043;fill-rule:evenodd"
   d="m 376.82699,481.09 c 0,4.07089 -3.30011,7.371 -7.371,7.371 -4.07089,0 -7.371,-3.30011 -7.371,-7.371 0,-4.07089 3.30011,-7.371 7.371,-7.371 4.07089,0 7.371,3.30011 7.371,7.371 z" />
</g>

</svg>